<?xml version="1.0" standalone="no"?><!DOCTYPE svg PUBLIC "-//W3C//DTD SVG 1.1//EN" "http://www.w3.org/Graphics/SVG/1.1/DTD/svg11.dtd"><svg t="1663405010435" class="icon" viewBox="0 0 1024 1024" version="1.1" xmlns="http://www.w3.org/2000/svg" p-id="14509" width="32" height="32" xmlns:xlink="http://www.w3.org/1999/xlink"><path d="M760.8 809.1c-12.8 0-23.2-10.5-23.2-23.2v-495c0-12.8 46.5-12.8 46.5 0v495c0 12.7-10.5 23.2-23.3 23.2z" fill="#F98097" p-id="14510"></path><path d="M760.8 814.1c-15.6 0-28.2-12.7-28.2-28.2v-495c0-10.8 15.2-14.6 28.2-14.6s28.2 3.8 28.2 14.6v495c0.1 15.5-12.6 28.2-28.2 28.2z m0-527.8c-12.6 0-18.2 3.6-18.2 4.6v495c0 10.1 8.2 18.2 18.2 18.2s18.2-8.2 18.2-18.2v-495c0.1-1-5.6-4.6-18.2-4.6z" fill="#486DB8" p-id="14511"></path><path d="M734 812v-42c0-15.2 12.5-0.7 27.7-0.7s27.7-14.5 27.7 0.7v42c0 7.5-13.5 16.3-27.2 16.4-14.1 0.1-28.2-8.7-28.2-16.4z" fill="#819FDE" p-id="14512"></path><path d="M761.9 833.4c-10.2 0-21.3-4.3-27.7-10.6-3.4-3.4-5.2-7.1-5.2-10.8v-42c0-3.3 0.4-8 4.2-10.5 4.2-2.9 9.2-0.9 14.5 1.2 4.3 1.7 9.1 3.6 14 3.6s9.8-1.9 14-3.6c5.3-2.1 10.3-4.1 14.5-1.2 3.7 2.5 4.2 7.2 4.2 10.5v42c0 10.7-15.9 21.3-32.2 21.4h-0.3z m-22.8-65.2c0 0.4-0.1 1-0.1 1.8v42c0 0.7 0.6 2.1 2.2 3.7 3.8 3.7 11.8 7.7 20.7 7.7h0.2c11.9-0.1 22.2-7.7 22.2-11.4v-42c0-0.8 0-1.3-0.1-1.8-1.3 0.4-3.3 1.1-4.9 1.8-4.8 1.9-10.9 4.3-17.7 4.3s-12.9-2.4-17.7-4.3c-1.5-0.6-3.5-1.4-4.8-1.8z" fill="#486DB8" p-id="14513"></path><path d="M732.3 739.7v-8.6c0-3.1 12.5 4.9 27.7 4.9s27.7-8 27.7-4.9v8.6c0 1.5-13.5 8.3-27.2 8.4-14 0-28.2-6.8-28.2-8.4z" fill="#819FDE" p-id="14514"></path><path d="M760.4 753.1c-13.2 0-27.6-5.6-31.3-9.3-1.5-1.5-1.8-3-1.8-4.1v-8.6c0-1.9 0.8-3.5 2.3-4.6 2.8-2 5.8-1 10.7 0.6 4.8 1.5 12 3.9 19.7 3.9s14.9-2.3 19.7-3.9c4.9-1.6 7.9-2.6 10.7-0.6 1.5 1.1 2.3 2.7 2.3 4.6v8.6c0 1.8 0 5.1-11.7 9.4-4 1.5-11.9 4-20.6 4z m-23.1-15.7c3.5 1.9 13.2 5.7 23.1 5.7 9.5 0 18.8-3.7 22.2-5.6v-0.8c-5.4 1.7-13.4 4.4-22.7 4.4s-17.3-2.6-22.7-4.4v0.7z" fill="#486DB8" p-id="14515"></path><path d="M759.1 228.6l-21 58.9c-1.1 3.2 2.4 6.1 5.3 4.3l2.1-1.3c1.1-0.6 2.4-0.7 3.5-0.1l11.6 5.8c1 0.5 2.2 0.5 3.2 0l11.4-5.7c1.2-0.6 2.6-0.5 3.7 0.3 2.8 2 6.6-0.8 5.5-4.1l-18.5-58c-1-3.3-5.7-3.3-6.8-0.1z" fill="#FFFFFF" p-id="14516"></path><path d="M762.2 301.6c-1.3 0-2.7-0.3-3.9-0.9l-10.9-5.4-1.4 0.9c-3.2 1.9-7.1 1.6-9.9-0.7-2.9-2.3-3.9-6.1-2.7-9.6l21-58.9c1.2-3.5 4.4-5.7 8.1-5.7h0.2c3.8 0.1 6.9 2.4 8.1 6l18.5 58c1.1 3.6-0.1 7.4-3.1 9.6-2.8 2.1-6.4 2.2-9.4 0.5l-10.7 5.4c-1.3 0.5-2.6 0.8-3.9 0.8z m-14.8-16.5c1.3 0 2.6 0.3 3.9 0.9l11 5.5 10.8-5.4c1.8-0.9 3.9-1.1 5.8-0.7l-16.3-51.3-18.4 51.6c0.9-0.4 2-0.6 3.2-0.6z" fill="#486DB8" p-id="14517"></path><path d="M289 240s-25.5 8.1-31.1 53c-5.6 44.9-7.8 469.7 14.1 494 28 31 32.3 10.9 109.4 10.9s286.2 4.5 286.2 4.5-32.3-57.5-5.6-71.6c26.7-14-364.9-5.6-364.9-5.6L289 240z" fill="#819FDE" p-id="14518"></path><path d="M302.9 809.3c-12.2 0-21.2-4.1-34.6-19-4.1-4.5-9.3-18.2-13.5-84.2-2.5-40.1-4.3-94.9-5.2-158.4-1.5-116.8 0.5-233.2 3.3-255.4 5.9-47.5 33.4-56.8 34.6-57.1l6.4-2 8.2 486.9c20.3-0.4 98.9-1.9 177-2.3 53-0.3 95.3 0 125.9 0.9 18.2 0.5 32.4 1.2 42.2 2.1 15.4 1.4 19.9 3 21 7.3 0.3 1.1 0.8 4.7-3.8 7.1-3.4 1.8-5.7 4.6-6.9 8.7-4.8 16.2 8.9 45.9 14.5 56l4.3 7.6-8.8-0.2c-2.1 0-209.9-4.5-286.1-4.5-27.3 0-45.4 2.5-58.6 4.4-7.8 1.2-14.2 2.1-19.9 2.1z m-18.8-560.8c-7.1 5.4-17.9 17.9-21.3 45.1-2.7 21.9-4.7 137.6-3.2 254.1 0.8 63.4 2.6 118 5.1 157.9 4.2 65.8 9.5 76.4 11 78.1 16.2 17.9 21.9 17.1 45.7 13.8 13.5-1.9 32-4.5 60-4.5 67.6 0 238.2 3.5 278 4.3-6.1-12.8-16.7-38.6-11.5-56.1 1.1-3.8 2.9-7 5.3-9.7-14.7-1.9-57.6-4.3-181.2-3.6-87.7 0.5-173.9 2.4-174.7 2.4l-5 0.1-8.2-481.9z" fill="#486DB8" p-id="14519"></path><path d="M310.3 716.7s-46.8-12.4-42.1 42.1c4.4 51.3 32.8 46.5 57.1 48.8 21.7 2 234.7-1.3 323.3-1.3 13.2 0 25.2-0.9 28.1-5.1 6.9-10.1-22.6-31.9-4.4-90.8 4.3-13.6-362 6.3-362 6.3z" fill="#F3F9FF" p-id="14520"></path><path d="M368.7 813.3c-22.6 0-38.6-0.2-43.8-0.7-2.7-0.2-5.3-0.4-8.1-0.6-21.9-1.3-49.2-2.9-53.5-52.8-1.6-19 2.5-32.7 12.2-40.9 13-10.9 31.2-7.6 35.4-6.7 8.7-0.5 92.7-5 176.8-8 51.9-1.9 93.7-2.9 124.1-3 59.8-0.2 62.4 3.2 64.5 5.9 1.2 1.5 1.6 3.5 1 5.3-11.5 37.3-3.4 58.3 2 72.3 3.1 8 5.5 14.3 1.7 19.9-3.6 5.3-12.6 7.3-32.2 7.3-33.3 0-83.2 0.5-136 0.9-53.2 0.6-107.3 1.1-144.1 1.1z m-69.2-92.8c-5.5 0-12.5 1.1-17.7 5.6-7.1 6-10 16.8-8.6 32.3 3.6 41.3 22.4 42.4 44.1 43.7 2.8 0.2 5.7 0.3 8.5 0.6 13.3 1.2 101.5 0.4 186.7-0.3 52.8-0.5 102.8-0.9 136.1-0.9 20.2 0 23.5-2.5 24-3 0.8-1.2-1.1-6.2-2.8-10.6-5.4-13.8-14.2-36.7-3.3-75-9.5-1.9-46.2-4-183.4 1.1-86.6 3.2-171.6 7.8-172.5 7.9h-0.8l-0.8-0.2c-0.1-0.2-4.2-1.2-9.5-1.2z" fill="#486DB8" p-id="14521"></path><path d="M653 725.4s-140.4-9.1-187.2-9.1c-42.7 0-170.7 9.1-170.7 9.1-11.6 0-21.1-9.5-21.1-21.1 0 0-7.2-181.5-7-242 0.1-51.6 7-206.5 7-206.5 0-11.6 9.5-21.1 21.1-21.1 0 0 76.6-5.5 179.1-4.2 74.4 0.9 178.8 16.8 178.8 16.8 11.6 0 21.1 9.5 21.1 21.1 0 0-13.9 220.5-7 289.3 9.2 91.7 7 146.6 7 146.6-0.1 11.6-9.6 21.1-21.1 21.1z" fill="#819FDE" p-id="14522"></path><path d="M653 730.4h-0.3c-1.4-0.1-140.8-9.1-186.9-9.1-42 0-169 9-170.3 9.1h-0.4c-14.3 0-26-11.6-26.1-25.9-0.2-5-7.2-182.7-7-242.1 0.1-50.6 6.8-201.8 7-206.6 0.1-14.3 11.6-25.8 25.9-25.9 4.2-0.3 80.2-5.4 179.3-4.2 71.7 0.9 172.4 15.8 179.2 16.8 14.2 0.2 25.7 11.8 25.7 26v0.3c-0.1 2.2-13.8 220.9-7 288.4 9 89.2 7.1 144.4 7 147.2-0.1 14.4-11.8 26-26.1 26z m-187.3-19.1c45.7 0 181.7 8.8 187.4 9.1 8.8-0.1 15.9-7.3 15.9-16.1v-0.2c0-0.5 2.1-55.6-7-145.9-6.8-68 6.3-278.7 7-289.9-0.1-8.8-7.2-15.9-16.1-15.9h-0.4l-0.4-0.1c-1-0.2-105-15.9-178.2-16.8-101-1.2-177.9 4.1-178.7 4.2h-0.4c-8.9 0-16.1 7.2-16.1 16.1v0.2c-0.1 1.5-6.9 155.3-7 206.3-0.1 59.7 6.9 240 7 241.8v0.2c0 8.8 7.1 16 15.9 16.1 5.9-0.4 129.5-9.1 171.1-9.1z" fill="#486DB8" p-id="14523"></path><path d="M536.6 387.6l-105-0.9c-63-1.6-84.9-11.3-84.8-27.8l0.3-32c0.1-16.5 20.3-37.8 108.3-32l111.9 7c16.5 0.1 29.9 16.8 29.7 33.3l-0.2 26c-0.1 16.4-14.2 28.8-60.2 26.4z" fill="#DEEBFF" p-id="14524"></path><path d="M547.6 392.9c-3.5 0-7.3-0.1-11.2-0.3l-104.9-0.9c-63.1-1.6-89.9-11.4-89.7-32.8l0.3-32c0-5.1 1.7-12.7 9.3-19.7 16.1-14.9 51.2-20.7 104.3-17.2l111.8 7c9.2 0.1 18 4.5 24.7 12.2 6.3 7.3 9.9 16.8 9.8 26.1l-0.2 26c-0.1 7.9-2.8 14.5-8.3 19.6-8.6 8-23.7 12-45.9 12z m-120.1-94c-42.7 0-61.3 8.1-69.3 15.6-4 3.7-6 7.9-6.1 12.5l-0.3 32c0 4 1.5 9.9 15.4 14.7 13.2 4.6 34.3 7.2 64.5 8l105.1 0.9c24.9 1.3 42.1-1.9 49.9-9.1 3.4-3.2 5.1-7.2 5.1-12.4l0.2-26c0.1-6.8-2.6-13.9-7.4-19.5-4.8-5.6-11-8.7-17.4-8.8h-0.3l-111.9-7c-10.1-0.6-19.2-0.9-27.5-0.9z" fill="#486DB8" p-id="14525"></path><path d="M333.7 726.1c-7.2 9.7 0 48.3 0 48.3l23.7-14 21.7 16.7s2.2-45.7-1-53.2c-5.1 0.1-12.5-0.1-22.9 1-9.2 0.9-17.1 0.6-21.5 1.2z" fill="#F98097" p-id="14526"></path><path d="M383.5 786.9L357 766.4l-26.9 15.9-1.3-7c-1.3-6.8-7.2-41.3 0.9-52.2l1.3-1.7 2.1-0.3c2.2-0.3 4.9-0.3 8.1-0.4 4-0.1 8.5-0.2 13.4-0.7 8.3-0.9 14.9-0.9 19.7-1 1.3 0 2.5 0 3.6-0.1l3.4-0.1 1.3 3.1c3.3 7.9 1.9 44.4 1.4 55.3l-0.5 9.7z m-25.8-32.5l16.7 12.8c0.5-15.6 0.5-31.3-0.4-38.3-4.8 0.1-10.7 0.1-18.4 0.9-5.3 0.5-10.2 0.7-14.1 0.8-1.7 0-3.3 0.1-4.7 0.2-2.1 6.1-1.5 21.3 0.6 35.5l20.3-11.9z" fill="#486DB8" p-id="14527"></path><path d="M282.3 737.8H305c1.9 0 1.9-3 0-3h-22.7c-1.9 0-1.9 3 0 3zM400.3 739.1c53.6 0.3 107.1-0.3 160.7-1.8 1.9-0.1 1.9-3.1 0-3-53.5 1.5-107.1 2.1-160.7 1.8-1.9 0-1.9 3 0 3zM529 746.7c42.2 0.7 84.4 1.5 126.7 2.2 1.9 0 1.9-3 0-3-42.2-0.7-84.4-1.5-126.7-2.2-1.9-0.1-1.9 2.9 0 3zM278.3 753.2H325c1.9 0 1.9-3 0-3h-46.7c-1.9 0-1.9 3 0 3zM401 754.8c28.2-0.9 56.4-1.9 84.7-2.8 1.9-0.1 1.9-3.1 0-3-28.2 0.9-56.4 1.9-84.7 2.8-1.9 0.1-1.9 3.1 0 3zM291 765.2h30.7c1.9 0 1.9-3 0-3H291c-1.9 0-1.9 3 0 3zM406.3 766.7c77.6-1 155.1-1.9 232.7-2.9 1.9 0 1.9-3 0-3-77.6 1-155.1 1.9-232.7 2.9-1.9 0.1-1.9 3.1 0 3zM289 782.5h44c1.9 0 1.9-3 0-3h-44c-1.9 0-1.9 3 0 3zM327 797.8h170c1.9 0 1.9-3 0-3H327c-1.9 0-1.9 3 0 3zM397 785.9c44 0.3 88 0.5 132 0.8 1.9 0 1.9-3 0-3-44-0.3-88-0.5-132-0.8-1.9 0-1.9 3 0 3zM569 784.5h82c1.9 0 1.9-3 0-3h-82c-1.9 0-1.9 3 0 3zM329.5 232.5c-4.7-1.9-9.9 2.4-13.7 4.6-6.5 3.8-12.9 7.9-19.1 12.2-5.6 3.9-11 7.9-16.3 12.2-4.6 3.7-9.5 7.3-11.2 13.2-0.5 1.9 2.4 2.6 2.9 0.8 1.6-5.5 6.9-9 11.2-12.4 4.9-3.9 9.8-7.6 14.9-11.1 4.5-3.1 9-6.1 13.6-8.9 3.7-2.3 12.4-9.4 16.8-7.5 1.8 0.5 2.6-2.4 0.9-3.1zM271.9 294.1c13.1-9.3 25.8-19.3 39.2-28.2 1.6-1.1 0.1-3.7-1.5-2.6-13.4 8.9-26.1 18.8-39.2 28.2-1.5 1.1-0.1 3.8 1.5 2.6zM276.2 329.2c12-15.2 25.3-29.3 39.9-42.1 1.5-1.3-0.7-3.4-2.1-2.1-14.6 12.8-27.9 26.9-39.9 42.1-1.2 1.5 0.9 3.6 2.1 2.1zM303.9 327.4c-9.8 10.7-21.8 19.3-30.8 30.8-1.2 1.5 0.9 3.6 2.1 2.1 9-11.4 21-20.1 30.8-30.8 1.4-1.4-0.8-3.5-2.1-2.1zM273.4 383.4c6.8-8.1 13.7-16.3 20.5-24.4 1.2-1.5-0.9-3.6-2.1-2.1-6.8 8.1-13.7 16.3-20.5 24.4-1.2 1.4 0.9 3.5 2.1 2.1zM270.4 403.3c13.2-13.9 27.8-26.5 41.7-39.7 1.4-1.3-0.7-3.5-2.1-2.1-13.9 13.2-28.5 25.8-41.7 39.7-1.4 1.3 0.7 3.5 2.1 2.1zM271.5 442.7c14.9-15.5 29.2-31.5 43.8-47.3 1.3-1.4-0.8-3.5-2.1-2.1-14.6 15.8-29 31.8-43.8 47.3-1.3 1.3 0.8 3.5 2.1 2.1zM272.3 483.2c20-19.3 39.9-38.7 59.8-58.2 1.4-1.4-0.7-3.5-2.1-2.1-19.9 19.5-39.8 38.9-59.8 58.2-1.4 1.3 0.7 3.5 2.1 2.1zM272.5 522.5c17.3-16.3 34.7-32.6 52-48.9 1.4-1.3-0.7-3.4-2.1-2.1-17.3 16.3-34.7 32.6-52 48.9-1.4 1.3 0.7 3.4 2.1 2.1zM304.8 522.8c-11 13.9-23 26.9-35.9 39.1-1.4 1.3 0.7 3.4 2.1 2.1 12.9-12.1 24.9-25.2 35.9-39.1 1.2-1.4-0.9-3.6-2.1-2.1zM302.6 558.2c-10.3 16.1-21.2 31.9-32.8 47.2-1.2 1.5 1.4 3 2.6 1.5 11.5-15.3 22.4-31 32.8-47.2 1-1.6-1.5-3.1-2.6-1.5zM309.1 594.1c-12.4 15-24.8 29.9-37.2 44.9-1.2 1.5 0.9 3.6 2.1 2.1 12.4-15 24.8-29.9 37.2-44.9 1.3-1.5-0.9-3.6-2.1-2.1zM314.3 620.6c-13.9 13.1-28.3 25.9-40.8 40.5-1.2 1.5 0.9 3.6 2.1 2.1 12.5-14.6 26.9-27.4 40.8-40.5 1.4-1.3-0.7-3.4-2.1-2.1zM315.2 637.1c-14.1 17.8-27.7 36-40.6 54.7-1.1 1.6 1.5 3.1 2.6 1.5 12.8-18.5 26.1-36.5 40.1-54.1 1.2-1.4-0.9-3.6-2.1-2.1zM341.5 648.8c-20.2 21.4-41.1 43.3-56.7 68.4-1 1.6 1.6 3.2 2.6 1.5 15.5-24.9 36.2-46.5 56.3-67.8 1.3-1.4-0.8-3.5-2.2-2.1zM353.6 683.2c-12.7 10.4-23.9 22.3-33.5 35.7-1.1 1.6 1.5 3.1 2.6 1.5 9.4-13.1 20.5-24.9 33-35.1 1.5-1.2-0.6-3.4-2.1-2.1zM385.9 678c-1.6 4.2-5.6 7.8-8.5 11.1-3 3.4-6.2 6.8-9.4 10.1-6.2 6.3-12.7 12.4-19.4 18.1-1.5 1.3 0.7 3.4 2.1 2.1 7.7-6.6 15-13.5 21.9-20.8 3.4-3.5 6.6-7.2 9.8-10.9 2.4-2.8 5-5.5 6.3-9 0.8-1.7-2.1-2.5-2.8-0.7zM426.5 689.5c-7.8 7.6-14.8 16-20.8 25.1-1.1 1.6 1.5 3.1 2.6 1.5 5.9-8.9 12.7-17.1 20.3-24.5 1.4-1.4-0.7-3.5-2.1-2.1zM468.7 685.3c-7 7.7-13.6 15.8-19.8 24.1-1.1 1.6 1.5 3.1 2.6 1.5 6-8.2 12.5-16 19.3-23.5 1.3-1.4-0.8-3.5-2.1-2.1zM496.8 687.8c-8 9-16.1 17.9-24.1 26.9-1.3 1.4 0.8 3.6 2.1 2.1 8-9 16.1-17.9 24.1-26.9 1.3-1.4-0.8-3.5-2.1-2.1zM527.3 679.2c-11.1 12.4-21.1 25.7-30.1 39.7-1 1.6 1.5 3.1 2.6 1.5 8.9-13.8 18.7-26.8 29.6-39.1 1.3-1.4-0.8-3.5-2.1-2.1zM555.7 684.7c-7.8 9.3-14.1 19.7-22 29-1.2 1.5 0.9 3.6 2.1 2.1 7.8-9.3 14.1-19.7 22-29 1.3-1.4-0.8-3.5-2.1-2.1zM572.9 700.9c-4.6 5-9.3 10.1-13.9 15.1-1.3 1.4 0.8 3.5 2.1 2.1 4.6-5 9.3-10.1 13.9-15.1 1.3-1.4-0.8-3.5-2.1-2.1zM616.1 674.1c-12.8 15.8-25.3 31.8-37.5 48.1-1.2 1.5 1.4 3 2.6 1.5 12.1-16.1 24.4-31.9 37.1-47.5 1.1-1.5-1-3.6-2.2-2.1zM642 680.4c-9.4 14.2-19.3 28-29.7 41.5-1.2 1.5 1.4 3 2.6 1.5 10.4-13.5 20.3-27.3 29.7-41.5 1-1.6-1.6-3.1-2.6-1.5zM669.9 675.9c-13.4 15.7-25.2 32.8-38.2 48.8-1.2 1.5 0.9 3.6 2.1 2.1 13-16.1 24.8-33.1 38.2-48.8 1.3-1.4-0.8-3.5-2.1-2.1zM668.4 634.4c-5.6 7.9-11.8 15.2-17.7 22.9-1.2 1.5 1.4 3 2.6 1.5 5.8-7.7 12.1-15 17.7-22.9 1.1-1.6-1.5-3.1-2.6-1.5zM666.9 593.9c-8 8.4-15.6 17.1-22.9 26.1-1.2 1.5 0.9 3.6 2.1 2.1 7.2-9 14.9-17.8 22.9-26.1 1.3-1.4-0.8-3.5-2.1-2.1zM662.6 562.6c-11.3 10.4-21.7 21.7-31.3 33.7-1.2 1.5 0.9 3.6 2.1 2.1 9.6-12 20-23.2 31.3-33.7 1.4-1.3-0.7-3.4-2.1-2.1zM663.9 526.2c-5.6 3.9-10.6 8.5-14.9 13.8-1.2 1.5 0.9 3.6 2.1 2.1 4.1-5.1 8.9-9.6 14.3-13.3 1.6-1.1 0.1-3.7-1.5-2.6zM659.9 467.9c-7.4 8.9-14.8 17.9-22.2 26.8-1.2 1.5 0.9 3.6 2.1 2.1 7.4-8.9 14.8-17.9 22.2-26.8 1.3-1.4-0.8-3.6-2.1-2.1zM662.8 493.8c-8.5 6.8-15.9 14.6-22.2 23.4-1.1 1.6 1.5 3.1 2.6 1.5 6.1-8.6 13.4-16.2 21.7-22.8 1.6-1.2-0.6-3.3-2.1-2.1zM661.3 424.3c-10.7 12-21.8 23.6-33.4 34.7-1.4 1.3 0.7 3.5 2.1 2.1 11.6-11.1 22.7-22.7 33.4-34.7 1.3-1.4-0.8-3.5-2.1-2.1zM661.8 386.7c-8.3 7.4-15.9 15.5-22.8 24.2-1.2 1.5 0.9 3.6 2.1 2.1 6.9-8.7 14.5-16.8 22.8-24.2 1.4-1.2-0.7-3.3-2.1-2.1zM665.5 341.6c-15 16.1-29.5 32.6-43.4 49.5-1.2 1.5 0.9 3.6 2.1 2.1 14-16.9 28.5-33.5 43.4-49.5 1.4-1.4-0.7-3.6-2.1-2.1zM673.2 288c-13.3 11.3-26 23.6-38.1 36.2-1.3 1.4 0.8 3.5 2.1 2.1 12.2-12.6 24.8-24.8 38.1-36.2 1.5-1.2-0.6-3.3-2.1-2.1zM666.4 258.4c-10.4 9.8-21.2 19.1-32.5 27.8-1.5 1.2 0 3.8 1.5 2.6 11.5-8.9 22.6-18.3 33.1-28.3 1.4-1.3-0.7-3.4-2.1-2.1zM630.9 243c-16.7 8.6-33.3 17.4-49.7 26.6-1.7 0.9-0.2 3.5 1.5 2.6 16.4-9.2 33-18.1 49.7-26.6 1.7-0.9 0.2-3.5-1.5-2.6zM583.1 240.6c-15.1 8.4-27.5 20.5-41.6 30.4-1.6 1.1-0.1 3.7 1.5 2.6 14.1-9.9 26.5-22.1 41.6-30.4 1.7-1 0.2-3.5-1.5-2.6zM549 237.2c-12.1 6.9-24 14.1-35.6 21.7-1.6 1-0.1 3.6 1.5 2.6 11.7-7.6 23.5-14.8 35.6-21.7 1.7-0.9 0.2-3.5-1.5-2.6zM512.9 233c-16.5 7.4-32.5 15.9-47.8 25.6-1.6 1-0.1 3.6 1.5 2.6 15.3-9.6 31.3-18.2 47.8-25.6 1.8-0.8 0.3-3.4-1.5-2.6zM461.9 232.1c-18.1 9.1-36.6 17.6-55.4 25.3-1.8 0.7-1 3.6 0.8 2.9 19-7.8 37.7-16.4 56.1-25.6 1.8-0.9 0.3-3.5-1.5-2.6zM406.1 231.5c-12.7 7.6-24.8 16-36.2 25.4-1.5 1.2 0.6 3.3 2.1 2.1 11.2-9.2 23.1-17.5 35.6-24.9 1.7-1 0.2-3.5-1.5-2.6zM367.3 232.8c-10.3 3.9-19.7 9.3-28.2 16.3-1.5 1.2 0.6 3.3 2.1 2.1 8.1-6.7 17.1-11.9 26.9-15.5 1.8-0.7 1-3.6-0.8-2.9z" fill="#486DB8" p-id="14528"></path><path d="M752.6 298.1c-5.9 4.5-10.9 9.8-14.9 16.1-1.1 1.6 1.5 3.1 2.6 1.5 3.7-5.8 8.4-10.8 13.9-15 1.4-1.1-0.1-3.7-1.6-2.6zM750.9 316.3c-5 6-9.5 12.2-13.5 18.8-1 1.7 1.6 3.2 2.6 1.5 3.9-6.4 8.3-12.5 13.1-18.2 1.1-1.5-1-3.6-2.2-2.1zM750.3 336.8c-2.9 4.2-5.7 8.5-8.6 12.7-1.1 1.6 1.5 3.1 2.6 1.5 2.9-4.2 5.7-8.5 8.6-12.7 1.1-1.5-1.5-3-2.6-1.5zM750.2 357.4c-4.8 6.6-9.4 13.3-13.8 20.1-1.1 1.6 1.5 3.1 2.6 1.5 4.4-6.8 9-13.5 13.8-20.1 1.1-1.5-1.5-3-2.6-1.5zM747.1 379c-4.3 6.6-8.5 13.3-12.8 19.9-1 1.6 1.5 3.1 2.6 1.5 4.3-6.6 8.5-13.3 12.8-19.9 1.1-1.6-1.5-3.1-2.6-1.5zM751.8 404.5c-3.5 4.5-7 8.9-10.6 13.4-1.2 1.5 0.9 3.6 2.1 2.1 3.5-4.5 7-8.9 10.6-13.4 1.2-1.5-0.9-3.6-2.1-2.1zM745.7 428.9c-2.2 3.9-4.6 7.7-7.3 11.3-1.2 1.5 1.4 3 2.6 1.5 2.7-3.6 5.1-7.4 7.3-11.3 0.9-1.7-1.7-3.2-2.6-1.5zM749.5 443.8c-4.1 7.7-8.2 15.5-12.2 23.2-0.9 1.7 1.7 3.2 2.6 1.5 4.1-7.7 8.2-15.5 12.2-23.2 0.9-1.7-1.7-3.2-2.6-1.5zM750.7 470.8c-5.1 4.5-9.4 9.7-13 15.5-1 1.7 1.6 3.2 2.6 1.5 3.4-5.6 7.6-10.6 12.5-14.9 1.5-1.3-0.6-3.4-2.1-2.1zM748.4 491.1c-4.3 5.2-8 10.7-11.1 16.6-0.9 1.7 1.7 3.2 2.6 1.5 3-5.7 6.5-11.1 10.6-16 1.2-1.5-0.9-3.6-2.1-2.1zM746.5 509.2c-3.1 2.8-5.6 6.1-7.4 9.8-0.8 1.7 1.7 3.3 2.6 1.5 1.7-3.5 4-6.6 6.9-9.2 1.5-1.3-0.7-3.4-2.1-2.1zM749.4 527.4c-3.9 5.2-7.7 10.4-11.6 15.6-1.2 1.6 1.5 3 2.6 1.5 3.9-5.2 7.7-10.4 11.6-15.6 1.2-1.6-1.4-3.1-2.6-1.5zM745.4 550.1c-1.9 3.4-3.7 6.8-5.6 10.2-0.9 1.7 1.7 3.2 2.6 1.5 1.9-3.4 3.7-6.8 5.6-10.2 0.9-1.7-1.7-3.2-2.6-1.5zM748.7 565.8c-4.8 7.3-9 15-12.6 23-0.8 1.7 1.8 3.3 2.6 1.5 3.6-8 7.8-15.7 12.6-23 1-1.6-1.6-3.1-2.6-1.5zM747.3 591.3c-4.5 5.7-8 11.8-10.6 18.5-0.7 1.8 2.2 2.6 2.9 0.8 2.4-6.2 5.7-12 9.9-17.2 1.1-1.4-1-3.6-2.2-2.1zM749.7 611.1c-5.8 5.5-10.2 12-13.1 19.5-0.7 1.8 2.2 2.6 2.9 0.8 2.7-6.9 6.9-13 12.3-18.1 1.5-1.4-0.6-3.6-2.1-2.2zM748.4 633.1c-3.3 4-6 8.4-8.1 13.1-0.8 1.8 1.8 3.3 2.6 1.5 2-4.5 4.5-8.7 7.6-12.5 1.2-1.5-0.9-3.6-2.1-2.1zM750.4 650.9c-4.4 3.4-8.1 7.4-11.3 12-1.1 1.6 1.5 3.1 2.6 1.5 3-4.3 6.7-8.1 10.8-11.4 1.5-1.1-0.6-3.2-2.1-2.1zM751.2 665.7L737.7 687c-1 1.6 1.6 3.1 2.6 1.5l13.5-21.3c1.1-1.6-1.5-3.1-2.6-1.5zM753.6 686.2c-5.6 8.4-10.6 17.1-15 26.2-0.8 1.7 1.8 3.3 2.6 1.5 4.4-9.1 9.4-17.8 15-26.2 1.1-1.6-1.5-3.1-2.6-1.5zM746.7 717.9l-6 8.7c-1.1 1.6 1.5 3.1 2.6 1.5l6-8.7c1.1-1.6-1.5-3.1-2.6-1.5zM778.4 287.1c-4 4-7.5 8.5-10.5 13.3-1 1.6 1.6 3.2 2.6 1.5 2.9-4.6 6.2-8.8 10-12.7 1.4-1.4-0.7-3.5-2.1-2.1zM779.8 307.1c-4.4 5.2-8.5 10.6-12.1 16.4-1 1.6 1.6 3.1 2.6 1.5 3.5-5.6 7.3-10.8 11.6-15.8 1.2-1.4-0.9-3.6-2.1-2.1zM776.8 329.2c-2.3 3.5-4.9 6.8-7.7 9.9-1.3 1.4 0.8 3.5 2.1 2.1 3.1-3.2 5.8-6.7 8.2-10.5 1-1.6-1.6-3.1-2.6-1.5zM779 343.5c-2 3.6-3.9 7.2-5.9 10.7-0.9 1.7 1.7 3.2 2.6 1.5 2-3.6 3.9-7.2 5.9-10.7 0.9-1.6-1.7-3.1-2.6-1.5zM780 358.4c-2.5 4.8-5.3 9.4-8.4 13.8-1.1 1.6 1.5 3.1 2.6 1.5 3.1-4.4 5.9-9 8.4-13.8 0.8-1.7-1.8-3.2-2.6-1.5zM779.8 377.7c-3.1 4.3-7.2 7.9-10.3 12.2-1.1 1.6 1.5 3.1 2.6 1.5 3.1-4.4 7.2-7.9 10.3-12.2 1.1-1.5-1.5-3-2.6-1.5zM778.5 393.6c-3.2 5.3-6.5 10.5-9.7 15.8-1 1.6 1.6 3.2 2.6 1.5 3.2-5.3 6.5-10.5 9.7-15.8 1-1.6-1.6-3.1-2.6-1.5zM779 413.9c-2.1 4.2-4.5 8.2-6.7 12.3-0.9 1.7 1.7 3.2 2.6 1.5 2.1-4.2 4.6-8.2 6.7-12.3 0.9-1.7-1.7-3.2-2.6-1.5zM780.7 430.6c-1.7 4.2-4.4 8-7 11.7-1.1 1.6 1.5 3.1 2.6 1.5 2.8-4 5.4-8 7.3-12.5 0.8-1.7-2.1-2.5-2.9-0.7zM779.7 446.2l-6.6 12c-0.9 1.7 1.7 3.2 2.6 1.5l6.6-12c0.9-1.6-1.7-3.2-2.6-1.5zM778.9 465.5c-2.6 3.8-5.2 7.6-7.8 11.5-1.1 1.6 1.5 3.1 2.6 1.5 2.6-3.8 5.2-7.6 7.8-11.5 1.1-1.6-1.5-3.1-2.6-1.5zM780.2 482.1c-2.1 3.7-4 7.6-5.7 11.5-0.8 1.8 1.8 3.3 2.6 1.5 1.7-3.9 3.6-7.7 5.7-11.5 0.9-1.6-1.7-3.2-2.6-1.5zM778.2 503.9c-1.9 5.2-4.9 9.8-7.9 14.4-1.1 1.6 1.5 3.1 2.6 1.5 3.2-4.8 6.3-9.6 8.2-15.1 0.7-1.8-2.2-2.6-2.9-0.8zM780.6 521c-1.6 3.1-3.3 6.1-4.9 9.2-0.9 1.7 1.7 3.2 2.6 1.5 1.6-3.1 3.3-6.1 4.9-9.2 0.9-1.7-1.7-3.2-2.6-1.5zM780.7 539c-2 4.3-4.7 8.1-8.2 11.5-1.4 1.3 0.7 3.5 2.1 2.1 3.6-3.5 6.5-7.5 8.6-12.1 0.9-1.7-1.7-3.2-2.5-1.5zM780 555.1c-2.2 3.2-5.1 5.8-7.6 8.8-1.2 1.5 0.9 3.6 2.1 2.1 2.6-3.2 5.7-6.1 8.1-9.5 1.1-1.5-1.5-3-2.6-1.4zM779.4 572c-2.9 3.7-5.7 7.4-8.7 11-1.3 1.5 0.9 3.6 2.1 2.1 3-3.5 5.9-7.3 8.7-11 1.2-1.5-0.9-3.6-2.1-2.1zM781.9 587.9c-2.9 1.1-4.4 3.3-6 5.9-2.7 4.3-5.3 8.5-8 12.8-1 1.6 1.6 3.2 2.6 1.5 1.9-3 3.8-6.1 5.7-9.1 1.7-2.7 3.4-6.9 6.5-8.1 1.8-0.8 1-3.7-0.8-3zM780.4 607.1c-3 3.4-6 6.8-9.1 10.2-1.3 1.4 0.8 3.6 2.1 2.1 3-3.4 6-6.8 9.1-10.2 1.3-1.4-0.8-3.5-2.1-2.1zM779.1 623c-2.2 4-4.5 8-6.7 12-0.9 1.7 1.6 3.2 2.6 1.5 2.2-4 4.5-8 6.7-12 1-1.7-1.6-3.2-2.6-1.5zM778.2 638.6c-0.7 4-2.4 7.5-5.1 10.5-1.3 1.4 0.8 3.6 2.1 2.1 3-3.4 5-7.4 5.8-11.9 0.4-1.8-2.5-2.6-2.8-0.7zM781 653.7c-3.3 4.1-6.2 8.5-8.6 13.2-0.9 1.7 1.7 3.2 2.6 1.5 2.3-4.5 4.9-8.7 8.1-12.6 1.2-1.4-0.9-3.6-2.1-2.1zM780.9 674.3c-2.6 1.6-4.6 3.8-5.8 6.6-0.8 1.7 1.8 3.3 2.6 1.5 1-2.3 2.6-4.2 4.7-5.5 1.6-1 0.1-3.6-1.5-2.6zM778.9 690.2c-3.1 4.3-5.9 8.8-8.5 13.5-0.9 1.7 1.7 3.2 2.6 1.5 2.5-4.7 5.3-9.2 8.5-13.5 1.1-1.6-1.5-3.1-2.6-1.5zM779.1 708.9c-2.7 3.7-5.4 7.5-8.2 11.2-1.1 1.6 1.5 3.1 2.6 1.5 2.7-3.7 5.4-7.5 8.2-11.2 1.1-1.5-1.5-3-2.6-1.5z" fill="#486DB8" p-id="14529"></path></svg>